<svg width="346" height="115" viewBox="0 0 346 115" fill="none" xmlns="http://www.w3.org/2000/svg">
<path d="M235.066 55.2027V61.7893H230.926V66.1089H235.066V80.7857C235.066 85.7973 237.34 87.8019 243.06 87.8019C244.065 87.8019 245.023 87.6826 245.861 87.5394V83.2676C245.142 83.3392 244.688 83.3869 243.898 83.3869C241.337 83.3869 240.212 82.1937 240.212 79.4731V66.1089H245.861V61.7893H240.212V55.2027H235.066Z" fill="white"/>
<path d="M260.432 88.1599C268.043 88.1599 272.711 83.0767 272.711 74.6524C272.711 66.2759 268.019 61.1689 260.432 61.1689C252.821 61.1689 248.13 66.2759 248.13 74.6524C248.13 83.0767 252.798 88.1599 260.432 88.1599ZM260.432 83.6017C255.957 83.6017 253.444 80.3322 253.444 74.6524C253.444 69.0204 255.957 65.727 260.432 65.727C264.884 65.727 267.421 69.0204 267.421 74.6524C267.421 80.3084 264.884 83.6017 260.432 83.6017Z" fill="white"/>
<path d="M276.704 87.6587H281.849V72.3137C281.849 68.6624 284.602 66.2043 288.503 66.2043C289.413 66.2043 290.944 66.3714 291.375 66.5146V61.4552C290.825 61.312 289.843 61.2405 289.078 61.2405C285.679 61.2405 282.783 63.1019 282.041 65.6554H281.658V61.67H276.704V87.6587Z" fill="white"/>
<path d="M304.152 65.5361C307.958 65.5361 310.447 68.1851 310.566 72.266H297.403C297.69 68.209 300.347 65.5361 304.152 65.5361ZM310.542 80.6425C309.585 82.671 307.455 83.7926 304.344 83.7926C300.227 83.7926 297.57 80.905 297.403 76.3468V76.0605H315.808V74.2706C315.808 66.1089 311.428 61.1689 304.176 61.1689C296.828 61.1689 292.161 66.443 292.161 74.7479C292.161 83.0528 296.733 88.1599 304.2 88.1599C310.159 88.1599 314.324 85.2961 315.497 80.6425H310.542Z" fill="white"/>
<path d="M201.321 78.0615C201.718 84.4432 207.051 88.5245 214.99 88.5245C223.473 88.5245 228.782 84.2453 228.782 77.4184C228.782 72.0509 225.756 69.0827 218.413 67.3759L214.469 66.4113C209.805 65.3229 207.92 63.8636 207.92 61.3158C207.92 58.1003 210.847 55.9978 215.238 55.9978C219.405 55.9978 222.283 58.0508 222.804 61.3406H228.212C227.889 55.3299 222.58 51.1002 215.312 51.1002C207.498 51.1002 202.288 55.3299 202.288 61.6869C202.288 66.9307 205.24 70.0473 211.715 71.5562L216.329 72.6692C221.067 73.7823 223.151 75.4148 223.151 78.1357C223.151 81.3018 219.876 83.6022 215.411 83.6022C210.624 83.6022 207.299 81.4502 206.828 78.0615H201.321Z" fill="white"/>
<path d="M148.016 61.2405C144.474 61.2405 141.41 63.0064 139.83 65.9657H139.447V61.67H134.493V96.2978H139.639V83.721H140.046C141.41 86.4655 144.354 88.0883 148.064 88.0883C154.646 88.0883 158.834 82.9096 158.834 74.6524C158.834 66.3952 154.646 61.2405 148.016 61.2405ZM146.556 83.4824C142.248 83.4824 139.543 80.0936 139.543 74.6763C139.543 69.2351 142.248 65.8463 146.58 65.8463C150.936 65.8463 153.545 69.1635 153.545 74.6524C153.545 80.1652 150.936 83.4824 146.556 83.4824Z" fill="white"/>
<path d="M176.84 61.2405C173.298 61.2405 170.234 63.0064 168.655 65.9657H168.272V61.67H163.317V96.2978H168.463V83.721H168.87C170.234 86.4655 173.178 88.0883 176.888 88.0883C183.47 88.0883 187.658 82.9096 187.658 74.6524C187.658 66.3952 183.47 61.2405 176.84 61.2405ZM175.38 83.4824C171.072 83.4824 168.367 80.0936 168.367 74.6763C168.367 69.2351 171.072 65.8463 175.404 65.8463C179.76 65.8463 182.369 69.1635 182.369 74.6524C182.369 80.1652 179.76 83.4824 175.38 83.4824Z" fill="white"/>
<path d="M125.261 87.6587H131.165L118.24 51.966H112.262L99.3376 87.6587H105.043L108.342 78.1852H121.986L125.261 87.6587ZM114.966 58.4466H115.388L120.572 73.535H109.756L114.966 58.4466Z" fill="white"/>
<path d="M102.794 25.0439V42.2624H109.029C114.175 42.2624 117.154 39.1003 117.154 33.5995C117.154 28.1822 114.151 25.0439 109.029 25.0439H102.794ZM105.475 27.4781H108.73C112.308 27.4781 114.426 29.7453 114.426 33.6353C114.426 37.5849 112.344 39.8282 108.73 39.8282H105.475V27.4781Z" fill="white"/>
<path d="M126.28 42.5129C130.086 42.5129 132.419 39.9713 132.419 35.7592C132.419 31.571 130.074 29.0174 126.28 29.0174C122.475 29.0174 120.129 31.571 120.129 35.7592C120.129 39.9713 122.463 42.5129 126.28 42.5129ZM126.28 40.2339C124.043 40.2339 122.786 38.5991 122.786 35.7592C122.786 32.9432 124.043 31.2965 126.28 31.2965C128.506 31.2965 129.775 32.9432 129.775 35.7592C129.775 38.5872 128.506 40.2339 126.28 40.2339Z" fill="white"/>
<path d="M152.292 29.268H149.719L147.397 39.1838H147.194L144.513 29.268H142.048L139.367 39.1838H139.176L136.842 29.268H134.234L137.824 42.2624H140.468L143.149 32.6926H143.352L146.045 42.2624H148.714L152.292 29.268Z" fill="white"/>
<path d="M155.255 42.2624H157.828V34.6614C157.828 32.6329 159.036 31.3681 160.939 31.3681C162.842 31.3681 163.751 32.4062 163.751 34.4944V42.2624H166.324V33.85C166.324 30.7596 164.721 29.0174 161.813 29.0174C159.85 29.0174 158.558 29.8885 157.923 31.3323H157.732V29.268H155.255V42.2624Z" fill="white"/>
<path d="M170.376 42.2624H172.949V24.1967H170.376V42.2624Z" fill="white"/>
<path d="M182.626 42.5129C186.431 42.5129 188.765 39.9713 188.765 35.7592C188.765 31.571 186.419 29.0174 182.626 29.0174C178.82 29.0174 176.475 31.571 176.475 35.7592C176.475 39.9713 178.808 42.5129 182.626 42.5129ZM182.626 40.2339C180.388 40.2339 179.131 38.5991 179.131 35.7592C179.131 32.9432 180.388 31.2965 182.626 31.2965C184.852 31.2965 186.12 32.9432 186.12 35.7592C186.12 38.5872 184.852 40.2339 182.626 40.2339Z" fill="white"/>
<path d="M196.431 40.3174C195.031 40.3174 194.013 39.6372 194.013 38.4679C194.013 37.3224 194.827 36.7138 196.622 36.5945L199.805 36.3916V37.4775C199.805 39.0883 198.369 40.3174 196.431 40.3174ZM195.773 42.4771C197.484 42.4771 198.908 41.7373 199.686 40.4367H199.889V42.2624H202.366V33.3847C202.366 30.6402 200.523 29.0174 197.256 29.0174C194.301 29.0174 192.194 30.4493 191.931 32.6807H194.42C194.708 31.7619 195.701 31.2368 197.137 31.2368C198.896 31.2368 199.805 32.0125 199.805 33.3847V34.5063L196.275 34.7092C193.176 34.9001 191.429 36.2484 191.429 38.5872C191.429 40.9617 193.259 42.4771 195.773 42.4771Z" fill="white"/>
<path d="M211.097 42.4771C212.892 42.4771 214.412 41.6299 215.19 40.21H215.394V42.2624H217.859V24.1967H215.286V31.3323H215.094C214.388 29.9004 212.881 29.0532 211.097 29.0532C207.807 29.0532 205.688 31.6545 205.688 35.7592C205.688 39.8759 207.783 42.4771 211.097 42.4771ZM211.827 31.3562C213.981 31.3562 215.334 33.0625 215.334 35.7711C215.334 38.4917 213.993 40.1742 211.827 40.1742C209.649 40.1742 208.345 38.5156 208.345 35.7592C208.345 33.0267 209.661 31.3562 211.827 31.3562Z" fill="white"/>
<path d="M234.543 42.5129C238.349 42.5129 240.682 39.9713 240.682 35.7592C240.682 31.571 238.337 29.0174 234.543 29.0174C230.738 29.0174 228.392 31.571 228.392 35.7592C228.392 39.9713 230.726 42.5129 234.543 42.5129ZM234.543 40.2339C232.305 40.2339 231.049 38.5991 231.049 35.7592C231.049 32.9432 232.305 31.2965 234.543 31.2965C236.769 31.2965 238.037 32.9432 238.037 35.7592C238.037 38.5872 236.769 40.2339 234.543 40.2339Z" fill="white"/>
<path d="M244.088 42.2624H246.661V34.6614C246.661 32.6329 247.87 31.3681 249.772 31.3681C251.675 31.3681 252.585 32.4062 252.585 34.4944V42.2624H255.157V33.85C255.157 30.7596 253.554 29.0174 250.646 29.0174C248.683 29.0174 247.391 29.8885 246.757 31.3323H246.565V29.268H244.088V42.2624Z" fill="white"/>
<path d="M267.007 26.0343V29.3277H264.937V31.4874H267.007V38.8258C267.007 41.3316 268.144 42.334 271.004 42.334C271.507 42.334 271.985 42.2743 272.404 42.2027V40.0668C272.045 40.1026 271.818 40.1265 271.423 40.1265C270.142 40.1265 269.58 39.5298 269.58 38.1696V31.4874H272.404V29.3277H269.58V26.0343H267.007Z" fill="white"/>
<path d="M275.858 42.2624H278.431V34.6734C278.431 32.7045 279.604 31.38 281.71 31.38C283.529 31.38 284.498 32.4301 284.498 34.5063V42.2624H287.071V33.8739C287.071 30.7834 285.36 29.0294 282.583 29.0294C280.621 29.0294 279.245 29.9004 278.61 31.3562H278.407V24.1967H275.858V42.2624Z" fill="white"/>
<path d="M296.352 31.201C298.255 31.201 299.5 32.5255 299.56 34.566H292.978C293.121 32.5375 294.45 31.201 296.352 31.201ZM299.548 38.7542C299.069 39.7685 298.004 40.3293 296.448 40.3293C294.39 40.3293 293.062 38.8855 292.978 36.6064V36.4632H302.18V35.5683C302.18 31.4874 299.99 29.0174 296.364 29.0174C292.691 29.0174 290.357 31.6545 290.357 35.8069C290.357 39.9594 292.643 42.5129 296.376 42.5129C299.356 42.5129 301.438 41.0811 302.025 38.7542H299.548Z" fill="white"/>
<path d="M71.4173 58.3648C71.4797 53.532 74.0827 48.959 78.212 46.4277C75.607 42.718 71.2437 40.366 66.7042 40.2243C61.8624 39.7176 57.1684 43.1132 54.7011 43.1132C52.1861 43.1132 48.3873 40.2747 44.2966 40.3586C38.9646 40.5303 33.9938 43.5531 31.3997 48.2012C25.8233 57.8279 29.9828 71.9759 35.3245 79.7574C37.9971 83.5678 41.1205 87.8241 45.2075 87.6732C49.2069 87.5078 50.7005 85.1303 55.5281 85.1303C60.3109 85.1303 61.7122 87.6732 65.8822 87.5772C70.1737 87.5077 72.8775 83.7499 75.4563 79.9034C77.3765 77.1884 78.8541 74.1877 79.8344 71.0125C74.7911 68.8856 71.4232 63.8249 71.4173 58.3648Z" fill="white"/>
<path d="M63.541 35.1069C65.8809 32.306 67.0336 28.706 66.7545 25.0713C63.1796 25.4457 59.8775 27.1493 57.506 29.8427C55.187 32.4743 53.9801 36.0109 54.2083 39.5067C57.7844 39.5434 61.3 37.886 63.541 35.1069Z" fill="white"/>
<path d="M4.32122 114.467L3.93853 115.391L4.32122 114.467ZM0.532843 110.679L1.45672 110.296L0.532843 110.679ZM345.467 110.679L344.543 110.296L345.467 110.679ZM341.679 114.467L342.061 115.391L341.679 114.467ZM341.679 0.532843L341.296 1.45672L341.679 0.532843ZM345.467 4.32122L346.391 3.93853L345.467 4.32122ZM10.5 1H335.5V-1H10.5V1ZM345 10.5V104.5H347V10.5H345ZM335.5 114H10.5V116H335.5V114ZM1 104.5V10.5H-1V104.5H1ZM10.5 114C8.85552 114 7.67224 113.999 6.73798 113.936C5.8127 113.873 5.20494 113.751 4.7039 113.543L3.93853 115.391C4.72389 115.716 5.57473 115.861 6.60184 115.931C7.61997 116.001 8.88288 116 10.5 116V114ZM-1 104.5C-1 106.117 -1.00054 107.38 -0.931075 108.398C-0.860996 109.425 -0.716341 110.276 -0.391036 111.061L1.45672 110.296C1.24918 109.795 1.12742 109.187 1.06429 108.262C1.00054 107.328 1 106.144 1 104.5H-1ZM4.7039 113.543C3.23373 112.934 2.06569 111.766 1.45672 110.296L-0.391036 111.061C0.420915 113.022 1.97831 114.579 3.93853 115.391L4.7039 113.543ZM345 104.5C345 106.144 344.999 107.328 344.936 108.262C344.873 109.187 344.751 109.795 344.543 110.296L346.391 111.061C346.716 110.276 346.861 109.425 346.931 108.398C347.001 107.38 347 106.117 347 104.5H345ZM335.5 116C337.117 116 338.38 116.001 339.398 115.931C340.425 115.861 341.276 115.716 342.061 115.391L341.296 113.543C340.795 113.751 340.187 113.873 339.262 113.936C338.328 113.999 337.144 114 335.5 114V116ZM344.543 110.296C343.934 111.766 342.766 112.934 341.296 113.543L342.061 115.391C344.022 114.579 345.579 113.022 346.391 111.061L344.543 110.296ZM335.5 1C337.144 1 338.328 1.00054 339.262 1.06429C340.187 1.12742 340.795 1.24918 341.296 1.45672L342.061 -0.391036C341.276 -0.716341 340.425 -0.860996 339.398 -0.931075C338.38 -1.00054 337.117 -1 335.5 -1V1ZM347 10.5C347 8.88289 347.001 7.61997 346.931 6.60184C346.861 5.57473 346.716 4.72389 346.391 3.93853L344.543 4.7039C344.751 5.20494 344.873 5.8127 344.936 6.73798C344.999 7.67225 345 8.85552 345 10.5H347ZM341.296 1.45672C342.766 2.06569 343.934 3.23373 344.543 4.7039L346.391 3.93853C345.579 1.97831 344.022 0.420915 342.061 -0.391036L341.296 1.45672ZM10.5 -1C8.88289 -1 7.61997 -1.00054 6.60184 -0.931075C5.57473 -0.860996 4.72389 -0.716341 3.93853 -0.391036L4.7039 1.45672C5.20494 1.24918 5.8127 1.12742 6.73798 1.06429C7.67225 1.00054 8.85552 1 10.5 1V-1ZM1 10.5C1 8.85552 1.00054 7.67225 1.06429 6.73798C1.12742 5.8127 1.24918 5.20494 1.45672 4.7039L-0.391036 3.93853C-0.716341 4.72389 -0.860996 5.57473 -0.931075 6.60184C-1.00054 7.61997 -1 8.88289 -1 10.5H1ZM3.93853 -0.391036C1.97831 0.420915 0.420915 1.97831 -0.391036 3.93853L1.45672 4.7039C2.06569 3.23373 3.23373 2.06569 4.7039 1.45672L3.93853 -0.391036Z" fill="white"/>
</svg>
