<svg width="160" height="118" viewBox="0 0 160 118" fill="none" xmlns="http://www.w3.org/2000/svg">
<path d="M0.779297 76.0576C0.779297 63.9808 4.93783 51.1634 13.2549 37.6055C21.6859 23.9336 36.8389 11.458 58.7139 0.178711L62.8154 7.86914C51.8779 15.6165 43.7887 22.1107 38.5479 27.3516C29.3193 36.8079 24.7051 45.8656 24.7051 54.5244C24.7051 57.4867 25.5596 59.4235 27.2686 60.335C28.9775 61.3604 30.4587 61.873 31.7119 61.873C36.0413 61.3034 38.8896 61.0186 40.2568 61.0186C47.5485 61.0186 53.5299 63.696 58.2012 69.0508C62.8724 74.2917 65.208 80.6719 65.208 88.1914C65.208 96.6224 62.6445 103.686 57.5176 109.383C52.3906 114.965 45.3268 117.757 36.3262 117.757C25.7305 117.757 17.1286 113.997 10.5205 106.478C4.02637 98.8441 0.779297 88.7041 0.779297 76.0576ZM95.1152 76.0576C95.1152 63.2972 99.5586 50.138 108.445 36.5801C117.332 23.0221 132.2 10.8883 153.05 0.178711L157.151 7.86914C146.897 15.0469 139.036 21.3701 133.567 26.8389C123.883 36.5231 119.041 45.5238 119.041 53.8408C119.041 56.2334 119.668 58.1702 120.921 59.6514C122.174 61.1325 123.883 61.873 126.048 61.873C130.377 61.3034 133.226 61.0186 134.593 61.0186C141.771 61.0186 147.695 63.639 152.366 68.8799C157.151 74.1208 159.544 80.5579 159.544 88.1914C159.544 97.0781 156.924 104.256 151.683 109.725C146.442 115.079 139.321 117.757 130.32 117.757C120.066 117.757 111.635 113.997 105.027 106.478C98.4193 98.8441 95.1152 88.7041 95.1152 76.0576Z" fill="#FFFFFF"/>
</svg>
