<svg width="388" height="115" viewBox="0 0 388 115" fill="none" xmlns="http://www.w3.org/2000/svg">
<path d="M195.828 62.5345C189.068 62.5345 183.558 67.6778 183.558 74.7618C183.558 81.8027 189.068 86.9892 195.828 86.9892C202.591 86.9892 208.1 81.8027 208.1 74.7618C208.097 67.6778 202.588 62.5345 195.828 62.5345ZM195.828 82.1765C192.123 82.1765 188.93 79.1203 188.93 74.7647C188.93 70.3631 192.126 67.353 195.828 67.353C199.533 67.353 202.726 70.3631 202.726 74.7647C202.726 79.1175 199.533 82.1765 195.828 82.1765ZM169.059 62.5345C162.299 62.5345 156.789 67.6778 156.789 74.7618C156.789 81.8027 162.299 86.9892 169.059 86.9892C175.821 86.9892 181.331 81.8027 181.331 74.7618C181.331 67.6778 175.821 62.5345 169.059 62.5345ZM169.059 82.1765C165.354 82.1765 162.161 79.1203 162.161 74.7647C162.161 70.3631 165.357 67.353 169.059 67.353C172.763 67.353 175.957 70.3631 175.957 74.7647C175.959 79.1175 172.763 82.1765 169.059 82.1765ZM137.22 66.2892V71.4757H149.63C149.259 74.3938 148.288 76.5242 146.805 78.0048C145 79.8103 142.175 81.8027 137.22 81.8027C129.58 81.8027 123.608 75.6416 123.608 67.9998C123.608 60.3581 129.58 54.197 137.22 54.197C141.341 54.197 144.35 55.8185 146.572 57.9028L150.231 54.243C147.127 51.2788 143.008 49.0105 137.22 49.0105C126.755 49.0105 117.958 57.532 117.958 67.9998C117.958 78.4677 126.755 86.9892 137.22 86.9892C142.867 86.9892 147.13 85.1348 150.461 81.6618C153.887 78.2348 154.953 73.4163 154.953 69.5265C154.953 68.3247 154.861 67.2121 154.674 66.2863H137.22V66.2892ZM267.438 70.3171C266.421 67.5858 263.317 62.5345 256.974 62.5345C250.677 62.5345 245.443 67.491 245.443 74.7618C245.443 81.6158 250.631 86.9892 257.574 86.9892C263.176 86.9892 266.418 83.5622 267.763 81.5698L263.596 78.7897C262.207 80.8281 260.308 82.1707 257.574 82.1707C254.844 82.1707 252.898 80.9201 251.648 78.4648L267.993 71.7028L267.438 70.3171ZM250.769 74.3938C250.631 69.6673 254.427 67.261 257.161 67.261C259.29 67.261 261.095 68.3276 261.699 69.8542L250.769 74.3938ZM237.482 86.2503H242.851V50.31H237.482V86.2503ZM228.681 65.2686H228.497C227.293 63.8311 224.977 62.5345 222.062 62.5345C215.949 62.5345 210.348 67.9078 210.348 74.8107C210.348 81.6647 215.949 86.9921 222.062 86.9921C224.98 86.9921 227.293 85.6955 228.497 84.2148H228.681V85.9743C228.681 90.652 226.181 93.1532 222.154 93.1532C218.866 93.1532 216.829 90.7928 215.995 88.8005L211.319 90.7468C212.661 93.987 216.225 97.9717 222.154 97.9717C228.451 97.9717 233.777 94.2658 233.777 85.2326V63.2791H228.684V65.2686H228.681ZM222.525 82.1765C218.82 82.1765 215.719 79.0715 215.719 74.8107C215.719 70.5011 218.82 67.353 222.525 67.353C226.181 67.353 229.052 70.5011 229.052 74.8107C229.052 79.0715 226.181 82.1765 222.525 82.1765ZM292.598 50.31H279.748V86.2503H285.108V72.6343H292.595C298.539 72.6343 304.385 68.3305 304.385 61.4736C304.385 54.6167 298.542 50.31 292.598 50.31ZM292.736 67.6318H285.108V55.3125H292.736C296.745 55.3125 299.021 58.6331 299.021 61.4736C299.021 64.2566 296.745 67.6318 292.736 67.6318ZM325.88 62.4712C321.997 62.4712 317.976 64.1818 316.312 67.974L321.071 69.9606C322.089 67.974 323.986 67.3242 325.972 67.3242C328.745 67.3242 331.565 68.9888 331.611 71.9472V72.3181C330.639 71.7632 328.558 70.9323 326.018 70.9323C320.887 70.9323 315.662 73.7527 315.662 79.0226C315.662 83.8325 319.87 86.9288 324.584 86.9288C328.188 86.9288 330.176 85.3102 331.424 83.4127H331.608V86.1871H336.787V72.4072C336.79 66.0305 332.025 62.4712 325.88 62.4712ZM325.23 82.1678C323.477 82.1678 321.025 81.2881 321.025 79.1146C321.025 76.3402 324.078 75.2765 326.713 75.2765C329.067 75.2765 330.179 75.7853 331.611 76.4782C331.194 79.8103 328.328 82.1678 325.23 82.1678ZM355.646 63.2561L349.499 78.8386H349.315L342.935 63.2561H337.158L346.725 85.0342L341.27 97.1495H346.863L361.61 63.2561H355.646ZM307.345 86.2503H312.705V50.31H307.345V86.2503Z" fill="white"/>
<path d="M136.283 29.4485C136.283 31.8577 135.57 33.7753 134.142 35.2071C132.521 36.9091 130.406 37.7601 127.807 37.7601C125.318 37.7601 123.2 36.8976 121.461 35.1726C119.72 33.4447 118.849 31.3057 118.849 28.7527C118.849 26.1968 119.72 24.0578 121.461 22.3328C123.2 20.605 125.318 19.7425 127.807 19.7425C129.043 19.7425 130.224 19.984 131.345 20.4641C132.469 20.9471 133.369 21.5882 134.041 22.3903L132.527 23.9083C131.386 22.5427 129.813 21.8613 127.804 21.8613C125.988 21.8613 124.419 22.4996 123.094 23.7761C121.769 25.0526 121.108 26.7115 121.108 28.7498C121.108 30.7882 121.769 32.4471 123.094 33.7236C124.419 35.0001 125.988 35.6383 127.804 35.6383C129.73 35.6383 131.337 34.9972 132.621 33.7121C133.455 32.8755 133.938 31.7111 134.067 30.219H127.804V28.1461H136.159C136.246 28.5975 136.283 29.0316 136.283 29.4485Z" fill="white"/>
<path d="M149.533 22.2439H141.681V27.7121H148.763V29.785H141.681V35.2532H149.533V37.375H139.465V20.125H149.533V22.2439Z" fill="white"/>
<path d="M158.876 37.375H156.66V22.2439H151.843V20.125H163.693V22.2439H158.876V37.375Z" fill="white"/>
<path d="M172.266 37.375V20.125H174.482V37.375H172.266Z" fill="white"/>
<path d="M184.309 37.375H182.093V22.2439H177.276V20.125H189.126V22.2439H184.309V37.375Z" fill="white"/>
<path d="M211.558 35.1468C209.862 36.8891 207.755 37.7602 205.235 37.7602C202.714 37.7602 200.607 36.8891 198.914 35.1468C197.219 33.4046 196.374 31.2713 196.374 28.75C196.374 26.2286 197.219 24.0953 198.914 22.3531C200.607 20.6108 202.714 19.7368 205.235 19.7368C207.741 19.7368 209.845 20.6137 211.546 22.3646C213.247 24.1155 214.098 26.243 214.098 28.75C214.098 31.2713 213.25 33.4046 211.558 35.1468ZM200.55 33.7007C201.826 34.9945 203.387 35.6385 205.235 35.6385C207.083 35.6385 208.646 34.9916 209.919 33.7007C211.195 32.407 211.836 30.7567 211.836 28.75C211.836 26.7432 211.195 25.093 209.919 23.7992C208.646 22.5055 207.083 21.8615 205.235 21.8615C203.387 21.8615 201.826 22.5083 200.55 23.7992C199.277 25.093 198.636 26.7432 198.636 28.75C198.636 30.7567 199.277 32.407 200.55 33.7007Z" fill="white"/>
<path d="M217.208 37.375V20.125H219.904L228.285 33.5426H228.38L228.285 30.2191V20.125H230.501V37.375H228.187L219.418 23.3048H219.323L219.418 26.6282V37.375H217.208Z" fill="white"/>
<path d="M136.283 29.4485C136.283 31.8577 135.57 33.7753 134.142 35.2071C132.521 36.9091 130.406 37.7601 127.807 37.7601C125.318 37.7601 123.2 36.8976 121.461 35.1726C119.72 33.4447 118.849 31.3057 118.849 28.7527C118.849 26.1968 119.72 24.0578 121.461 22.3328C123.2 20.605 125.318 19.7425 127.807 19.7425C129.043 19.7425 130.224 19.984 131.345 20.4641C132.469 20.9471 133.369 21.5882 134.041 22.3903L132.527 23.9083C131.386 22.5427 129.813 21.8613 127.804 21.8613C125.988 21.8613 124.419 22.4996 123.094 23.7761C121.769 25.0526 121.108 26.7115 121.108 28.7498C121.108 30.7882 121.769 32.4471 123.094 33.7236C124.419 35.0001 125.988 35.6383 127.804 35.6383C129.73 35.6383 131.337 34.9972 132.621 33.7121C133.455 32.8755 133.938 31.7111 134.067 30.219H127.804V28.1461H136.159C136.246 28.5975 136.283 29.0316 136.283 29.4485Z" stroke="black" stroke-width="0.2" stroke-miterlimit="10"/>
<path d="M149.533 22.2439H141.681V27.7121H148.763V29.785H141.681V35.2532H149.533V37.375H139.465V20.125H149.533V22.2439Z" stroke="black" stroke-width="0.2" stroke-miterlimit="10"/>
<path d="M158.876 37.375H156.66V22.2439H151.843V20.125H163.693V22.2439H158.876V37.375Z" stroke="black" stroke-width="0.2" stroke-miterlimit="10"/>
<path d="M172.266 37.375V20.125H174.482V37.375H172.266Z" stroke="black" stroke-width="0.2" stroke-miterlimit="10"/>
<path d="M184.309 37.375H182.093V22.2439H177.276V20.125H189.126V22.2439H184.309V37.375Z" stroke="black" stroke-width="0.2" stroke-miterlimit="10"/>
<path d="M211.558 35.1468C209.862 36.8891 207.755 37.7602 205.235 37.7602C202.714 37.7602 200.607 36.8891 198.914 35.1468C197.219 33.4046 196.374 31.2713 196.374 28.75C196.374 26.2286 197.219 24.0953 198.914 22.3531C200.607 20.6108 202.714 19.7368 205.235 19.7368C207.741 19.7368 209.845 20.6137 211.546 22.3646C213.247 24.1155 214.098 26.243 214.098 28.75C214.098 31.2713 213.25 33.4046 211.558 35.1468ZM200.55 33.7007C201.826 34.9945 203.387 35.6385 205.235 35.6385C207.083 35.6385 208.646 34.9916 209.919 33.7007C211.195 32.407 211.836 30.7567 211.836 28.75C211.836 26.7432 211.195 25.093 209.919 23.7992C208.646 22.5055 207.083 21.8615 205.235 21.8615C203.387 21.8615 201.826 22.5083 200.55 23.7992C199.277 25.093 198.636 26.7432 198.636 28.75C198.636 30.7567 199.277 32.407 200.55 33.7007Z" stroke="black" stroke-width="0.2" stroke-miterlimit="10"/>
<path d="M217.208 37.375V20.125H219.904L228.285 33.5426H228.38L228.285 30.2191V20.125H230.501V37.375H228.187L219.418 23.3048H219.323L219.418 26.6282V37.375H217.208Z" stroke="black" stroke-width="0.2" stroke-miterlimit="10"/>
<path fill-rule="evenodd" clip-rule="evenodd" d="M77.4959 45.1024L35.9661 21.4964C33.7188 20.2189 31.7011 20.253 30.3607 21.3345L65.8093 56.7945L77.4959 45.1024ZM78.3976 45.6149L66.5163 57.5017L78.4032 69.3925L92.0134 61.6573C96.0285 59.3716 96.0285 55.637 92.0134 53.3543L78.3976 45.6149ZM77.4997 69.9032L65.8093 58.209L30.3607 93.6741C31.7011 94.7552 33.7188 94.7871 35.9661 93.5123L77.4997 69.9032ZM29.6731 92.9475L65.1023 57.5018L29.6719 22.0599C29.0321 22.9385 28.6631 24.1735 28.6631 25.7111V89.2946C28.6631 90.8356 29.0326 92.0694 29.6731 92.9475Z" fill="white"/>
<path d="M5 1H383V-1H5V1ZM387 5V110H389V5H387ZM383 114H4.99999V116H383V114ZM1 110V5H-1V110H1ZM4.99999 114C2.79086 114 1 112.209 1 110H-1C-1 113.314 1.68628 116 4.99999 116V114ZM387 110C387 112.209 385.209 114 383 114V116C386.314 116 389 113.314 389 110H387ZM383 1C385.209 1 387 2.79086 387 5H389C389 1.68629 386.314 -1 383 -1V1ZM5 -1C1.68629 -1 -1 1.68629 -1 5H1C1 2.79086 2.79086 1 5 1V-1Z" fill="white"/>
</svg>
