<svg width="179" height="179" viewBox="0 0 179 179" fill="none" xmlns="http://www.w3.org/2000/svg">
<path d="M28.4685 117.469H39.7827C42.423 117.469 44.9514 116.425 46.816 114.56V114.56C48.6805 112.695 49.7247 110.167 49.7247 107.527V67.7441C49.7247 65.1038 48.6805 62.5755 46.816 60.7109V60.7109C44.9514 58.8463 42.423 57.8021 39.7827 57.8021H30.3181" stroke="#323232" stroke-width="9" stroke-linecap="round" stroke-linejoin="round"/>
<path d="M148.682 57.8021H139.225C136.584 57.8021 134.056 58.8463 132.191 60.7109V60.7109C130.327 62.5755 129.283 65.1038 129.283 67.7441V107.527C129.283 110.167 130.327 112.695 132.191 114.56V114.56C134.056 116.425 136.584 117.469 139.225 117.469H150.539" stroke="#323232" stroke-width="9" stroke-linecap="round" stroke-linejoin="round"/>
<path d="M129.432 109.242H123.018C120.885 109.242 118.774 109.697 116.835 110.585L85.4576 124.875" stroke="#323232" stroke-width="9" stroke-linecap="round" stroke-linejoin="round"/>
<path d="M79.3939 64.6488C75.6349 62.4635 71.0928 61.919 66.9012 63.4256L49.7247 69.6086" stroke="#323232" stroke-width="9" stroke-linecap="round" stroke-linejoin="round"/>
<path d="M130.476 62.9185L109.026 53.4763C104.432 51.4551 99.1212 51.8802 94.9073 54.6099L75.441 67.222C69.2506 71.2271 68.5421 80.013 74.0016 84.9654V84.9654C77.3504 88.0009 82.1983 88.7318 86.2929 86.8225L97.8981 81.4077" stroke="#323232" stroke-width="9" stroke-linecap="round" stroke-linejoin="round"/>
<path fill-rule="evenodd" clip-rule="evenodd" d="M89.5 156.625C126.572 156.625 156.625 126.572 156.625 89.5C156.625 52.4279 126.572 22.375 89.5 22.375C52.4279 22.375 22.375 52.4279 22.375 89.5C22.375 126.572 52.4279 156.625 89.5 156.625Z" stroke="#323232" stroke-width="9" stroke-linecap="round" stroke-linejoin="round"/>
<path d="M97.8981 81.4003L103.79 86.7479C110.301 92.6474 110.324 102.865 103.85 108.802L88.8064 122.57C83.1306 127.776 74.4193 127.791 68.7211 122.622L58.3838 113.247C55.9375 111.032 52.8199 109.787 49.5457 109.518" stroke="#323232" stroke-width="9" stroke-linecap="round" stroke-linejoin="round"/>
</svg>
